<?xml version="1.0" encoding="utf-8"?>
<!-- Generator: Adobe Illustrator 23.1.0, SVG Export Plug-In . SVG Version: 6.00 Build 0)  -->
<svg version="1.1" id="Layer_1" xmlns="http://www.w3.org/2000/svg" xmlns:xlink="http://www.w3.org/1999/xlink" x="0px" y="0px"
	 viewBox="0 0 228.7 221.3" style="enable-background:new 0 0 228.7 221.3;" xml:space="preserve">
<style type="text/css">
	.st0{fill:none;}
	.st1{fill:#FBAD3A;}
	.st2{fill:#FFFBF7;}
	.st3{fill:#FFFFFF;}
</style>
<g>
	<polygon class="st0" points="149.2,211.3 152.5,211.3 150.8,206.6 	"/>
	<path class="st0" d="M45,204.7c-3.5,0-6.3,2.8-6.3,6.2c0,3.5,2.8,6.3,6.3,6.3c3.4,0,6.2-2.8,6.2-6.3
		C51.3,207.5,48.5,204.7,45,204.7z"/>
	<path class="st0" d="M121.3,206.8c0-1.2-0.9-2.1-2.1-2.1h-1.7v4.1h1.7C120.4,208.8,121.3,207.9,121.3,206.8z"/>
	<path class="st1" d="M10.4,221.3c2.8,0,5.3-1.1,7.2-2.9l-2.9-2.9c-1.1,1-2.6,1.6-4.2,1.6c-3.5,0-6.3-2.8-6.3-6.2
		c0-3.4,2.8-6.2,6.3-6.2c1.6,0,3.1,0.6,4.2,1.7l2.9-3c-1.9-1.8-4.4-2.9-7.2-2.9c-5.7,0-10.4,4.7-10.4,10.4
		C0,216.7,4.7,221.3,10.4,221.3z"/>
	<path class="st1" d="M55.4,210.9c0-5.7-4.7-10.4-10.4-10.4s-10.4,4.7-10.4,10.4c0,5.7,4.7,10.4,10.4,10.4S55.4,216.7,55.4,210.9z
		 M45,217.2c-3.5,0-6.3-2.8-6.3-6.3c0-3.4,2.8-6.2,6.3-6.2c3.4,0,6.2,2.8,6.2,6.2C51.3,214.4,48.5,217.2,45,217.2z"/>
	<polygon class="st1" points="95,221.3 95,200.5 90.5,200.5 84.4,215.7 78.3,200.5 73.9,200.5 73.9,221.3 78,221.3 78,210.9 
		82.2,221.3 86.7,221.3 90.8,210.9 90.8,221.3 	"/>
	<path class="st1" d="M117.5,213h1.7c3.4,0,6.2-2.8,6.2-6.2c0-3.5-2.8-6.3-6.2-6.3h-5.8v20.8h4.1V213z M117.5,204.7h1.7
		c1.2,0,2.1,0.9,2.1,2.1c0,1.1-0.9,2.1-2.1,2.1h-1.7V204.7z"/>
	<path class="st1" d="M153.1,200.5h-4.4l-7.5,20.8h4.4l2.1-5.8h6.4l2.1,5.8h4.4L153.1,200.5z M149.2,211.3l1.7-4.7l1.7,4.7H149.2z"
		/>
	<polygon class="st1" points="195.8,221.3 195.8,200.5 191.6,200.5 191.6,214.4 183.3,200.5 178.4,200.5 178.4,221.3 182.6,221.3 
		182.6,207.5 190.9,221.3 	"/>
	<polygon class="st1" points="218.3,200.5 213.6,200.5 219.1,211.4 219.1,221.3 223.2,221.3 223.2,211.4 228.7,200.5 224,200.5 
		221.2,206.3 	"/>
	<path class="st2" d="M168.7,19.2L168.7,19.2L168.7,19.2c-0.1-0.1-0.3-0.2-0.4-0.4l0,0l0,0C168.4,19,168.5,19.1,168.7,19.2z"/>
	<path class="st2" d="M166.7,17.7L166.7,17.7L166.7,17.7c0.5,0.4,1,0.8,1.5,1.1l0,0l0,0C167.7,18.5,167.2,18.1,166.7,17.7
		L166.7,17.7L166.7,17.7c-0.1-0.1-0.3-0.2-0.4-0.3l-0.2-0.1l0.2,0.1C166.5,17.5,166.6,17.6,166.7,17.7z"/>
	<path class="st2" d="M166,17.2C166,17.2,166,17.2,166,17.2L166,17.2L166,17.2L166,17.2C166,17.2,166,17.2,166,17.2z"/>
	<polygon class="st2" points="166,17.1 165.9,17.1 165.7,16.9 165.9,17.1 	"/>
	<path class="st2" d="M164.9,16.3c0.1,0.1,0.1,0.1,0.2,0.2C165,16.4,164.9,16.4,164.9,16.3l-0.2-0.1v0l0,0L164.9,16.3z"/>
	<path class="st2" d="M164.7,16.2L164.7,16.2c-0.2-0.1-0.3-0.2-0.4-0.3C164.4,16,164.5,16.1,164.7,16.2L164.7,16.2z"/>
	<path class="st2" d="M163,15L163,15c-0.2-0.1-0.3-0.2-0.5-0.3C162.6,14.8,162.8,14.9,163,15L163,15z"/>
	<path class="st2" d="M128.5,1.2L128.5,1.2L128.5,1.2c-0.3-0.1-0.7-0.1-1-0.2c-0.2,0-0.3,0-0.5-0.1c0.2,0,0.3,0,0.5,0.1
		C127.8,1,128.2,1.1,128.5,1.2z"/>
	<path class="st2" d="M161.6,14.1C161.6,14.1,161.6,14.1,161.6,14.1L161.6,14.1L161.6,14.1C161.6,14.1,161.6,14.1,161.6,14.1z"/>
	<path class="st2" d="M150.9,8.1L150.9,8.1L150.9,8.1c-0.9-0.4-1.7-0.8-2.5-1.1l0,0l0,0C149.2,7.3,150,7.7,150.9,8.1z"/>
	<path class="st2" d="M160.8,13.6c0.2,0.1,0.4,0.2,0.5,0.3C161.2,13.8,161,13.7,160.8,13.6L160.8,13.6L160.8,13.6L160.8,13.6
		L160.8,13.6z"/>
	<path class="st2" d="M140.5,4c-0.2-0.1-0.4-0.1-0.6-0.2c-0.2-0.1-0.4-0.1-0.6-0.2c0.2,0.1,0.4,0.1,0.6,0.2
		C140.1,3.9,140.3,4,140.5,4z"/>
	<path class="st2" d="M137.2,3.1C137.1,3,137,3,136.9,3l-0.1,0l0.1,0C137,3,137.1,3,137.2,3.1z"/>
	<polygon class="st2" points="137.4,3.1 137.4,3.1 137.4,3.1 137.4,3.1 	"/>
	<path class="st2" d="M147.7,6.7L147.7,6.7c0.3,0.1,0.5,0.2,0.6,0.3l0,0l0,0C148.2,6.9,148,6.8,147.7,6.7L147.7,6.7L147.7,6.7
		L147.7,6.7L147.7,6.7L147.7,6.7z"/>
	<polygon class="st2" points="158.2,12 158.2,12 158.2,12 	"/>
	<path class="st2" d="M158.7,12.2l0.4,0.3c0.3,0.2,0.6,0.3,0.8,0.5l0,0l0,0l0,0l0,0c-0.3-0.2-0.5-0.3-0.8-0.5L158.7,12.2L158.7,12.2
		c-0.1,0-0.1-0.1-0.2-0.1C158.5,12.2,158.6,12.2,158.7,12.2L158.7,12.2z"/>
	<path class="st2" d="M169.3,19.8L169.3,19.8L169.3,19.8c-0.2-0.2-0.4-0.3-0.6-0.5l0,0l0,0C168.9,19.5,169.1,19.6,169.3,19.8z"/>
	<path class="st2" d="M157.4,11.5c0.2,0.1,0.4,0.2,0.6,0.3C157.8,11.7,157.6,11.6,157.4,11.5l-0.1-0.1c-0.1,0-0.1-0.1-0.2-0.1
		c0.1,0,0.1,0.1,0.2,0.1L157.4,11.5z"/>
	<path class="st2" d="M151,8.2l0.7,0.4c0.3,0.1,0.6,0.3,0.8,0.4l0,0l0,0l0,0l0,0c-0.3-0.1-0.6-0.3-0.8-0.4L151,8.2L151,8.2
		C151,8.2,151,8.1,151,8.2C151,8.1,151,8.2,151,8.2L151,8.2z"/>
	<path class="st2" d="M144.6,5.5c0.6,0.2,1.3,0.5,2.1,0.8c0.1,0,0.1,0,0.2,0.1c-0.1,0-0.1,0-0.2-0.1C146,6,145.3,5.7,144.6,5.5
		l-0.4-0.1l-0.1,0l0.1,0L144.6,5.5z"/>
	<polygon class="st2" points="28.8,74.5 28.8,74.5 28.8,74.6 28.8,74.5 	"/>
	<polygon class="st2" points="28.8,74.6 28.8,74.7 28.8,74.7 28.8,74.7 	"/>
	<path class="st2" d="M28.9,73.8c0-0.1,0-0.3,0.1-0.4l0-0.1l0,0.1C29,73.5,29,73.6,28.9,73.8L28.9,73.8L28.9,73.8L28.9,73.8
		L28.9,73.8z"/>
	<path class="st2" d="M28.9,73.9c0,0.1,0,0.2,0,0.3l0,0.2l0-0.2C28.9,74.1,28.9,74,28.9,73.9z"/>
	<path class="st2" d="M28.6,76.7c0-0.1,0-0.2,0-0.3C28.6,76.5,28.6,76.6,28.6,76.7L28.6,76.7L28.6,76.7L28.6,76.7L28.6,76.7z"/>
	<path class="st2" d="M28.2,81.5c0,0.2,0,0.3,0,0.5l0,0l0,0C28.2,81.9,28.2,81.7,28.2,81.5z"/>
	<path class="st2" d="M28.4,78.9c0,0.1,0,0.2,0,0.3c0,0.1,0,0.1,0,0.2c0-0.1,0-0.1,0-0.2C28.3,79.1,28.3,79,28.4,78.9z"/>
	<path class="st2" d="M28.3,80c0,0,0-0.1,0-0.1C28.3,79.9,28.3,79.9,28.3,80c0,0.3-0.1,0.7-0.1,1l0,0l0,0
		C28.2,80.6,28.2,80.3,28.3,80z"/>
	<path class="st2" d="M108.3,0.2c0.2,0,0.4,0,0.6,0C108.7,0.2,108.5,0.2,108.3,0.2z"/>
	<path class="st2" d="M101.1,1L101.1,1C101.2,1,101.2,1,101.1,1C101.2,1,101.2,1,101.1,1z"/>
	<path class="st2" d="M73.1,115.3c0,0.1,0.1,0.2,0.1,0.2C73.2,115.5,73.1,115.4,73.1,115.3z"/>
	<path class="st2" d="M117.6,0.1c1.9,0.1,3.9,0.2,5.8,0.4C121.5,0.3,119.5,0.1,117.6,0.1z"/>
	<path class="st2" d="M132.4,1.9c0.6,0.1,1.1,0.2,1.6,0.4C133.5,2.1,132.9,2,132.4,1.9z"/>
	<path class="st2" d="M152.7,9c1.3,0.6,2.5,1.3,3.7,2C155.2,10.3,154,9.6,152.7,9z"/>
	<path class="st2" d="M170.6,20.8c-0.2-0.1-0.3-0.3-0.5-0.4l-0.3-0.3l0.3,0.3C170.2,20.5,170.4,20.7,170.6,20.8z"/>
	<path class="st2" d="M86.1,37.6c7.4-7.9,16.4-14.1,26.6-18c3.1-1.2,6.2-2.2,9.4-2.9c-3.2,0.8-6.3,1.7-9.4,2.9
		C102.5,23.6,93.4,29.7,86.1,37.6z"/>
	<path class="st2" d="M101.5,147.5C101.5,147.5,101.5,147.5,101.5,147.5c-8.5-5.1-15.9-12-21.7-20.3c-2.1-3-3.9-6.1-5.5-9.4
		c1.6,3.2,3.4,6.4,5.5,9.4C85.6,135.4,92.9,142.3,101.5,147.5z"/>
	<path class="st2" d="M28,85.6L28,85.6c0,0.1,0,0.2,0,0.3c0,0.1,0,0.2,0,0.3c0-0.1,0-0.2,0-0.3V85.6z"/>
	<path class="st2" d="M46.6,130.6C34.9,119,28.3,103.6,28,87.2l0-0.2v-0.3c0-0.1,0-0.2,0-0.2c0,0.1,0,0.2,0,0.2c0,0.1,0,0.2,0,0.3
		l0,0.2C28.3,103.6,34.9,119,46.6,130.6c11.7,11.5,27.2,17.9,43.7,17.9c2.6,0,5.2-0.2,7.8-0.5c-2.6,0.3-5.2,0.5-7.8,0.5
		C73.8,148.5,58.3,142.1,46.6,130.6z"/>
	<path class="st2" d="M172.5,22.5L172.5,22.5c0.2,0.2,0.3,0.3,0.5,0.4C172.8,22.8,172.7,22.7,172.5,22.5L172.5,22.5l-0.2-0.2
		c0,0-0.1-0.1-0.1-0.1c0,0,0.1,0.1,0.1,0.1L172.5,22.5z"/>
	<polygon class="st2" points="173.9,23.9 173.9,23.9 173.9,23.9 173.9,23.9 	"/>
	<path class="st2" d="M174.8,24.7C174.8,24.7,174.8,24.7,174.8,24.7C174.8,24.7,174.8,24.7,174.8,24.7
		C174.8,24.7,174.8,24.7,174.8,24.7c-0.1-0.1-0.2-0.2-0.3-0.3c-0.1-0.1-0.3-0.3-0.4-0.4c0.1,0.1,0.3,0.3,0.4,0.4
		C174.6,24.5,174.7,24.6,174.8,24.7z"/>
	<path class="st2" d="M173.5,23.5c-0.1-0.1-0.3-0.2-0.4-0.4l0,0l0,0C173.2,23.2,173.4,23.4,173.5,23.5z"/>
	<path class="st2" d="M28.1,82.1L28.1,82.1C28.1,82.1,28.1,82.1,28.1,82.1C28.1,82.1,28.1,82.1,28.1,82.1L28.1,82.1z"/>
	<polygon class="st2" points="28.1,82.3 28.1,82.3 28.1,82.3 28.1,82.3 	"/>
	<path class="st2" d="M28.1,84.5v-0.1c0-0.1,0-0.1,0-0.2c0-0.3,0-0.7,0-1c0-0.1,0-0.2,0-0.2c0,0.1,0,0.2,0,0.2c0,0.4,0,0.7,0,1
		c0,0.1,0,0.1,0,0.2L28.1,84.5L28.1,84.5L28.1,84.5c0,0.3,0,0.6,0,0.8l0,0.2l0-0.2C28,85.1,28.1,84.8,28.1,84.5z"/>
	<path class="st1" d="M29,73.1L29,73.1l0,0.2c0,0.1,0,0.3-0.1,0.4v0l0,0l0,0c0,0,0,0.1,0,0.1c0,0.1,0,0.2,0,0.3l0,0.2l0,0l0,0.1l0,0
		l0,0l0,0l0,0l0,0.1l0,0.1l0,0l0,0c0,0.3-0.1,0.6-0.1,0.9c0,0.3-0.1,0.5-0.1,0.8c0,0.1,0,0.2,0,0.3v0l0,0l0,0c0,0.3-0.1,0.6-0.1,0.9
		c0,0.2,0,0.5-0.1,0.7v0l0,0.2c0,0.1,0,0.2,0,0.3c0,0.1,0,0.2,0,0.3c0,0.1,0,0.1,0,0.2c0,0.1,0,0.1,0,0.2c0,0.1,0,0.2,0,0.3
		c0,0,0,0.1,0,0.1c0,0.3-0.1,0.7-0.1,1l0,0l0,0v0c0,0.2,0,0.3,0,0.5c0,0.2,0,0.3,0,0.5l0,0l0,0v0v0c0,0,0,0,0,0.1c0,0,0,0.1,0,0.1
		v0.1v0l0,0l0,0.1c0,0.2,0,0.4,0,0.6c0,0.1,0,0.2,0,0.2c0,0.4,0,0.7,0,1c0,0.1,0,0.1,0,0.2v0.1c0,0.3,0,0.6,0,0.8l0,0.2l0,0.1v0v0.3
		c0,0.1,0,0.2,0,0.3c0,0.1,0,0.1,0,0.2c0,0.1,0,0.1,0,0.2c0,0.1,0,0.2,0,0.2V87l0,0.2c0.2,16.4,6.8,31.8,18.5,43.3
		c11.7,11.5,27.2,17.9,43.7,17.9c2.6,0,5.2-0.2,7.8-0.5c1.2-0.1,2.3-0.3,3.5-0.5c0,0,0,0,0,0c-8.5-5.1-15.9-12-21.7-20.3
		c-2.1-3-3.9-6.1-5.5-9.4c-0.4-0.7-0.7-1.5-1-2.2c0-0.1-0.1-0.2-0.1-0.2c-4-9.1-6.1-18.9-6.1-29c0-14.7,4.4-28.8,12.8-40.9
		c1.9-2.8,4-5.4,6.3-7.8c7.4-7.9,16.4-14.1,26.6-18c3.1-1.2,6.2-2.2,9.4-2.9c5.3-1.3,10.8-1.9,16.4-1.9c13,0,25.5,3.5,36.4,9.9
		c0,0,0,0,0,0c0,0,0,0,0,0c-0.1-0.1-0.2-0.2-0.3-0.3c-0.1-0.1-0.3-0.3-0.4-0.4c0,0-0.1-0.1-0.1-0.1l0,0l0,0l0,0l0,0
		c-0.1-0.1-0.3-0.2-0.4-0.4c-0.1-0.1-0.3-0.2-0.4-0.4l0,0l0,0l0,0c0,0,0,0-0.1-0.1c-0.2-0.1-0.3-0.3-0.5-0.4l0,0l-0.2-0.2
		c0,0-0.1-0.1-0.1-0.1c-0.2-0.2-0.4-0.4-0.7-0.6c-0.3-0.2-0.5-0.4-0.7-0.6c-0.1-0.1-0.2-0.1-0.2-0.2c-0.2-0.1-0.3-0.3-0.5-0.4
		l-0.3-0.3l-0.2-0.2l0,0l-0.1-0.1l-0.1-0.1c-0.2-0.2-0.4-0.3-0.6-0.5l0,0l0,0l0,0l0,0c-0.1-0.1-0.3-0.2-0.4-0.4l0,0l0,0l0,0l0,0
		c-0.5-0.4-1-0.8-1.4-1.1l0,0l0,0c-0.1-0.1-0.3-0.2-0.4-0.3l-0.2-0.1l-0.1-0.1c0,0,0,0-0.1,0c0,0,0,0,0,0l0,0l0,0l0,0l0,0l-0.3-0.2
		l-0.1-0.1l-0.4-0.3c0,0-0.1-0.1-0.1-0.1c-0.1-0.1-0.1-0.1-0.2-0.2l-0.1-0.1l0,0l0,0l0,0l0,0c-0.1-0.1-0.3-0.2-0.4-0.3
		c0,0-0.1-0.1-0.1-0.1l0,0l0,0c-0.4-0.3-0.7-0.5-1.1-0.8l0,0l0,0l0,0c-0.2-0.1-0.3-0.2-0.5-0.3c0,0-0.1-0.1-0.1-0.1l0,0l0,0
		c-0.2-0.2-0.5-0.3-0.7-0.5c0,0,0,0,0,0l0,0l0,0l0,0c-0.1,0-0.1-0.1-0.2-0.1c-0.2-0.1-0.4-0.2-0.5-0.3l0,0l0,0l0,0
		c-0.3-0.2-0.5-0.3-0.8-0.5l0,0l0,0l0,0c-0.3-0.2-0.5-0.3-0.8-0.5l-0.4-0.3l0,0c-0.1,0-0.1-0.1-0.2-0.1c-0.1,0-0.2-0.1-0.3-0.1l0,0
		l0,0l0,0l0,0c-0.1,0-0.1-0.1-0.2-0.1c-0.2-0.1-0.4-0.2-0.6-0.3l-0.1-0.1c-0.1,0-0.1-0.1-0.2-0.1c-0.2-0.1-0.4-0.2-0.5-0.3
		c0,0,0,0-0.1,0c-1.2-0.7-2.5-1.3-3.7-2c0,0-0.1,0-0.1,0l0,0l0,0l0,0c-0.3-0.1-0.6-0.3-0.8-0.4L151,8.2l0,0c0,0,0,0-0.1,0
		c0,0,0,0,0,0l0,0l0,0l0,0c-0.9-0.4-1.7-0.8-2.5-1.1l0,0l0,0l0,0l0,0c-0.2-0.1-0.4-0.2-0.6-0.2l-0.1,0l-0.1,0l0,0l0,0l-0.3-0.1
		c-0.1,0-0.2-0.1-0.4-0.1c-0.1,0-0.1,0-0.2-0.1c-0.8-0.3-1.5-0.6-2.1-0.8l-0.4-0.1l-0.1,0l-0.4-0.1c-1.1-0.4-2.1-0.8-3.3-1.1l0,0
		l0,0c0,0,0,0-0.1,0c-0.2-0.1-0.4-0.1-0.6-0.2c-0.2-0.1-0.4-0.1-0.6-0.2c-0.1,0-0.3-0.1-0.4-0.1c-0.5-0.1-0.9-0.3-1.4-0.4l0,0l0,0
		l0,0l0,0c-0.1,0-0.1,0-0.2,0C137.1,3,137,3,136.9,3l-0.1,0l-0.1,0c-0.9-0.2-1.8-0.5-2.8-0.7c-0.5-0.1-1.1-0.2-1.6-0.4
		c-0.9-0.2-1.9-0.4-2.8-0.6c-0.3-0.1-0.7-0.1-1-0.2l0,0h0h0c-0.3-0.1-0.7-0.1-1-0.2c-0.2,0-0.3,0-0.5-0.1c-0.2,0-0.4-0.1-0.6-0.1
		c-1-0.1-2-0.3-3-0.4c-1.9-0.2-3.9-0.3-5.8-0.4c-1.1,0-2.2-0.1-3.3-0.1c-1.8,0-3.7,0.1-5.5,0.2c-0.2,0-0.4,0-0.6,0
		c-2,0.1-4,0.3-6,0.6c-0.4,0.1-0.7,0.1-1.1,0.2c0,0,0,0,0,0c0,0,0,0,0,0l0,0L29,73.1L29,73.1z"/>
	<path class="st3" d="M199.6,99.4L199.6,99.4l0-0.1c0-0.1,0-0.2,0.1-0.4l0,0l0,0l0-0.1c0-0.2,0.1-0.3,0.1-0.5l0-0.1l0-0.1
		c0-0.1,0-0.1,0-0.1l0.1-0.5L200,97c0-0.4,0.1-0.7,0.1-1l0,0c0-0.3,0.1-0.6,0.1-0.9c0-0.3,0.1-0.5,0.1-0.7v0l0-0.2
		c0-0.2,0-0.3,0-0.5l0-0.1l0-0.1c0-0.2,0-0.4,0.1-0.7v0l0-0.1c0-0.3,0.1-0.6,0.1-1v0c0-0.3,0-0.7,0.1-1l0-0.1v-0.1l0-0.1
		c0-0.3,0-0.6,0-0.8c0-0.4,0-0.7,0-1.1l0,0v-0.2c0-0.3,0-0.5,0-0.8V87l0,0c0-0.2,0-0.4,0-0.7c0-0.2,0-0.5,0-0.7v0l0-0.2
		c-0.2-16.4-6.8-31.8-18.5-43.3c-11.7-11.5-27.2-17.9-43.7-17.9c-3.8,0-7.6,0.3-11.2,1c8.5,5.1,15.9,12,21.7,20.3
		c8.4,12,12.8,26.1,12.8,40.9c0,14.7-4.4,28.8-12.8,40.9c-8.2,11.7-19.6,20.7-32.9,25.8c-8.2,3.2-16.9,4.8-25.8,4.8
		c-13,0-25.5-3.5-36.4-9.9l0,0l0.1,0l0,0c0.1,0.1,0.1,0.1,0.2,0.2l0.2,0.2c0.1,0.1,0.3,0.3,0.4,0.4l0,0l0,0c0.2,0.2,0.5,0.5,0.8,0.7
		l0,0l0,0c0.2,0.2,0.4,0.3,0.5,0.5l0,0l0,0c0.3,0.3,0.6,0.6,1,0.9l0,0l0,0c0.2,0.2,0.4,0.4,0.6,0.6l0,0l0.1,0.1l0,0l0.6,0.5l0.1,0.1
		l0,0c0.2,0.1,0.3,0.3,0.5,0.4l0.1,0.1l0.1,0.1c0.1,0.1,0.3,0.3,0.5,0.4l0.1,0l0.1,0c0.1,0.1,0.3,0.2,0.4,0.3l0,0l0,0
		c0.5,0.4,0.9,0.7,1.4,1.1c0.1,0.1,0.2,0.2,0.3,0.2c0.1,0.1,0.2,0.2,0.4,0.3c0.1,0.1,0.1,0.1,0.2,0.1l0.1,0.1
		c0.2,0.1,0.4,0.3,0.6,0.4l0.2,0.1c0.1,0.1,0.2,0.1,0.3,0.2l0,0l0,0c0.1,0.1,0.3,0.2,0.4,0.3l0.2,0.1c0.4,0.3,0.7,0.5,1.1,0.8l0,0
		l0,0c0.2,0.1,0.3,0.2,0.5,0.3l0.1,0.1l0.4,0.3l0.4,0.3c0.2,0.1,0.4,0.3,0.7,0.4c0.2,0.1,0.5,0.3,0.7,0.4H69l1,0.9
		c0.1,0.1,0.3,0.2,0.5,0.3c0.3,0.2,0.6,0.4,0.9,0.5l0,0l0,0c0.2,0.1,0.5,0.3,0.7,0.4c1.3,0.7,2.6,1.4,3.9,2c0.3,0.1,0.6,0.3,0.9,0.4
		c0,0,0.1,0,0.1,0.1c0.3,0.1,0.5,0.3,0.8,0.4c0.8,0.4,1.6,0.8,2.5,1.1l0,0l0,0c0.2,0.1,0.4,0.2,0.6,0.3c0.1,0,0.1,0.1,0.2,0.1
		c0.3,0.1,0.5,0.2,0.8,0.3c0.7,0.3,1.4,0.5,2.1,0.8l0,0l0,0c0.2,0.1,0.5,0.2,0.7,0.3l0,0l0,0c1.1,0.4,2.2,0.8,3.2,1.1l0,0l0,0
		c0.2,0.1,0.4,0.1,0.6,0.2l0,0l0,0c0.3,0.1,0.6,0.2,1,0.3l0.3,0.1c0.4,0.1,0.8,0.2,1.1,0.3c0.2,0.1,0.4,0.1,0.6,0.2l0,0
		c2.4,0.6,4.8,1.2,7.2,1.6l0,0l0,0c0.3,0.1,0.6,0.1,1,0.2h0l0,0c0.4,0.1,0.7,0.1,1,0.2l0,0l0,0c0.3,0.1,0.7,0.1,1,0.1l0,0
		c4,0.6,8,0.8,12.1,0.8c4,0,8.1-0.3,12.1-0.8l0.1,0c0.3,0,0.6-0.1,1-0.1l0,0l0,0l72.1-72.1C199.6,99.4,199.6,99.4,199.6,99.4z"/>
</g>
</svg>
